<svg width="413" height="134" viewBox="0 0 413 134" fill="none" xmlns="http://www.w3.org/2000/svg">
<g clip-path="url(#clip0_40_172)">
<mask id="mask0_40_172" style="mask-type:luminance" maskUnits="userSpaceOnUse" x="0" y="-57" width="413" height="191">
<path d="M0 -57H413V134H0V-57Z" fill="white"/>
</mask>
<g mask="url(#mask0_40_172)">
<path d="M152.397 47.4195H147.425L149.911 41.3953H154.883L152.397 47.4195ZM129.399 35.3172L129.372 28.2976C145.267 28.2934 154.701 27.8313 154.701 31.6058C154.701 35.3782 145.213 35.3179 129.399 35.3172ZM122.284 47.4195H117.312L119.798 41.3953H124.77L122.284 47.4195ZM111.997 47.4195C111.872 54.6397 111.665 60.3104 111.424 61.0817H129.499L129.446 47.4195H127.35L129.836 41.3953H134.808L132.94 45.9223C134.622 45.9283 136.313 45.9327 138.003 45.9285L139.874 41.3953H144.846L142.359 47.4195H141.006L150.416 61.0817H170.795L159.241 47.4195H157.463L158.046 46.0065L156.974 44.7385H156.973C157.565 44.6332 158.144 44.5178 158.712 44.3934L159.949 41.3953H164.921L164.443 42.5543C168.895 40.5091 171.678 37.238 171.678 32.0092C171.678 16.7311 157.817 16.33 129.326 16.33L111.597 16.3838C112.091 18.0391 112.194 30.1103 112.079 41.3953H115.153L112.667 47.4195H111.997Z" fill="white"/>
<path d="M292.356 47.4195H287.383L289.87 41.3953H294.842L292.356 47.4195ZM259.647 38.7059V28.298C275.676 28.298 285.195 27.6256 285.195 33.4919C285.195 38.7059 275.611 38.7059 259.647 38.7059ZM282.37 47.4195H277.398L279.884 41.3953H284.856L282.37 47.4195ZM272.385 47.4195H267.413L269.899 41.3953H274.871L272.385 47.4195ZM262.399 47.4195H257.427L259.913 41.3953H264.885L262.399 47.4195ZM252.182 47.4195H247.21L249.697 41.3953H254.669L252.182 47.4195ZM259.647 16.33L241.064 16.4107C241.808 18.6634 241.944 30.4541 241.851 41.3953H244.793L242.307 47.4195H241.776C241.667 54.0849 241.492 59.565 241.352 61.0011L259.647 61.0817V50.2164C279.274 50.2164 301.576 51.8302 301.576 34.1109C301.576 17.4058 289.568 15.7922 259.647 16.33Z" fill="white"/>
<path d="M211.094 47.4195L209.183 43.9741L209.135 43.983L207.839 47.4195H205.142L207.465 41.1791H210.023L212.026 44.73L212.074 44.7213L213.387 41.1791H216.1L213.76 47.4195H211.094ZM188.433 47.4195L190.757 41.1791H193.578L191.786 46.0042H195.599L195.084 47.4195H188.433ZM218.007 47.4195H214.565L216.889 41.1791H220.454C222.092 41.1791 223.23 41.469 223.901 41.9789C228.063 33.1996 233.037 23.2151 237.231 16.246H217.146L204.52 45.1604C204.52 45.1604 204.469 45.048 204.375 44.8394L204.895 47.4195H201.981L201.867 46.3646H198.89L198.059 47.4195H195.098L201.003 41.1791H202.725C199.291 33.5655 192.066 17.5715 191.37 16.246L170.795 16.33C170.795 16.33 177.605 28.9415 183.828 41.3937C184.217 41.3905 185.051 41.385 184.997 41.3953C184.997 41.3953 184.711 42.0662 184.468 42.6769C188.021 49.826 191.284 56.7545 192.874 61.0817H215.184C215.184 61.0817 217.848 54.9593 221.615 46.8515C220.618 47.2147 219.403 47.4195 218.007 47.4195Z" fill="white"/>
<path d="M292.356 47.4195H287.384L289.87 41.3952H294.842L292.356 47.4195ZM282.37 47.4195H277.398L279.884 41.3952H284.856L282.37 47.4195ZM272.385 47.4195H267.413L269.899 41.3952H274.871L272.385 47.4195ZM262.4 47.4195H257.427L259.913 41.3952H264.886L262.4 47.4195ZM252.183 47.4195H247.21L249.697 41.3952H254.669L252.183 47.4195ZM242.307 47.4195H237.335L239.821 41.3952H244.793L242.307 47.4195ZM232.432 47.4195H227.46L229.946 41.3952H234.918L232.432 47.4195ZM224.605 43.7808C224.272 45.9165 221.805 47.4195 218.007 47.4195H214.565L216.889 41.1791H220.454C223.524 41.1791 224.854 42.1897 224.605 43.7808ZM211.094 47.4195L209.183 43.9741L209.135 43.9829L207.839 47.4195H205.141L207.465 41.1791H210.023L212.026 44.73L212.074 44.7213L213.387 41.1791H216.1L213.76 47.4195H211.094ZM201.981 47.4195L201.867 46.3646H198.89L198.059 47.4195H195.098L201.002 41.1791H203.638L204.895 47.4195H201.981ZM188.433 47.4195L190.757 41.1791H193.578L191.786 46.0042H195.599L195.084 47.4195H188.433ZM182.511 47.4195H177.538L180.025 41.3952H184.997L182.511 47.4195ZM172.473 47.4195H167.501L169.987 41.3952H174.959L172.473 47.4195ZM162.435 47.4195H157.463L159.949 41.3952H164.921L162.435 47.4195ZM152.397 47.4195H147.425L149.911 41.3952H154.883L152.397 47.4195ZM142.36 47.4195H137.388L139.873 41.3952H144.846L142.36 47.4195ZM132.322 47.4195H127.35L129.836 41.3952H134.808L132.322 47.4195ZM122.284 47.4195H117.312L119.798 41.3952H124.77L122.284 47.4195ZM112.096 39.4324C112.091 40.0885 112.086 40.7432 112.079 41.3952H115.153L112.667 47.4195H111.997C111.985 48.1055 111.973 48.7795 111.959 49.4365H284.526C291.475 48.4306 297.116 46.2247 299.828 41.4614L299.855 41.3952H299.866C300.209 40.7839 300.504 40.1304 300.747 39.4324H112.096Z" fill="#FFDC01"/>
<path d="M219.892 42.5941H219.086L217.809 46.0042H218.554C220.476 46.0042 221.503 44.9846 221.686 43.816C221.809 43.025 221.303 42.5941 219.892 42.5941Z" fill="#FFDC01"/>
<path d="M201.494 43.095L199.949 45.0462H201.731L201.525 43.095H201.494Z" fill="#FFDC01"/>
</g>
</g>
<defs>
<clipPath id="clip0_40_172">
<rect width="413" height="191" fill="white" transform="translate(0 -57)"/>
</clipPath>
</defs>
</svg>
